<svg xmlns="http://www.w3.org/2000/svg" xmlns:xlink="http://www.w3.org/1999/xlink" width="250.781" height="220.705" viewBox="0 0 250.781 220.705">
  <defs>
    <clipPath id="clip-path">
      <rect id="Rectangle_1866" data-name="Rectangle 1866" width="171.217" height="213.75" fill="none"/>
    </clipPath>
    <clipPath id="clip-path-3">
      <rect id="Rectangle_1856" data-name="Rectangle 1856" width="16.012" height="118.5" fill="none"/>
    </clipPath>
  </defs>
  <g id="Group_1078" data-name="Group 1078" transform="matrix(0.259, -0.966, 0.966, 0.259, 0, 165.383)">
    <g id="Group_1077" data-name="Group 1077" clip-path="url(#clip-path)">
      <g id="Group_1070" data-name="Group 1070">
        <g id="Group_1069" data-name="Group 1069" clip-path="url(#clip-path)">
          <path id="Path_277" data-name="Path 277" d="M62.708,229.5l80.744-67.179-29.963-62.63s35.615-28.058,46.5-34.539c13.518-8.054,9.68-25.028-5.61-21.7-12.769,2.781-77.638,52.694-77.638,52.694,2.446-10.683,17.651-54.2,6.138-57.3s-36.695,54.1-47.453,113.71L.646,182" transform="translate(-0.27 -16.201)" fill="#fff"/>
          <path id="Path_278" data-name="Path 278" d="M62.708,229.5l80.744-67.179-29.963-62.63s35.615-28.058,46.5-34.539c13.518-8.054,9.68-25.028-5.61-21.7-12.769,2.781-77.638,52.694-77.638,52.694,2.446-10.683,17.651-54.2,6.138-57.3s-36.695,54.1-47.453,113.71L.646,182" transform="translate(-0.27 -16.201)" fill="none" stroke="#1c404e" stroke-miterlimit="10" stroke-width="2"/>
          <g id="Group_1068" data-name="Group 1068" transform="translate(84.242 68.564)" opacity="0.3">
            <g id="Group_1067" data-name="Group 1067">
              <g id="Group_1066" data-name="Group 1066" clip-path="url(#clip-path-3)">
                <path id="Path_279" data-name="Path 279" d="M152.1,117.86l-7.29,5.907V224.038c-.055,10.08,7.771,13.953,10.478,11.7l5.534-4.6Z" transform="translate(-144.809 -117.86)" fill="#1c404e"/>
              </g>
            </g>
          </g>
          <path id="Path_280" data-name="Path 280" d="M206.7,185.241H168.627a11.286,11.286,0,0,1-11.286-11.286V12.286A11.286,11.286,0,0,1,168.627,1H206.7a11.286,11.286,0,0,1,11.286,11.286V173.955A11.286,11.286,0,0,1,206.7,185.241" transform="translate(-65.809 -0.418)" fill="#ff8278"/>
          <rect id="Rectangle_1857" data-name="Rectangle 1857" width="60.648" height="184.241" rx="15" transform="translate(91.532 0.582)" fill="none" stroke="#1c404e" stroke-miterlimit="10" stroke-width="2"/>
          <path id="Path_281" data-name="Path 281" d="M184.316,196.756H171.344a2.036,2.036,0,0,1-2.036-2.036V188.6a2.036,2.036,0,0,1,2.036-2.036h12.972Z" transform="translate(-70.814 -78.03)" fill="#1c404e"/>
          <rect id="Rectangle_1858" data-name="Rectangle 1858" width="15.008" height="10.194" transform="translate(114.352 108.531)" fill="#1c404e"/>
          <path id="Path_282" data-name="Path 282" d="M236.8,196.756H223.827V186.561H236.8a2.036,2.036,0,0,1,2.036,2.036v6.122a2.036,2.036,0,0,1-2.036,2.036" transform="translate(-93.617 -78.03)" fill="#1c404e"/>
          <path id="Path_283" data-name="Path 283" d="M184.316,218.3H171.344a2.036,2.036,0,0,1-2.036-2.036v-6.122a2.036,2.036,0,0,1,2.036-2.036h12.972Z" transform="translate(-70.814 -87.039)" fill="#1c404e"/>
          <rect id="Rectangle_1859" data-name="Rectangle 1859" width="15.008" height="10.194" transform="translate(114.352 121.062)" fill="#1c404e"/>
          <path id="Path_284" data-name="Path 284" d="M236.8,218.3H223.827V208.1H236.8a2.036,2.036,0,0,1,2.036,2.036v6.122A2.036,2.036,0,0,1,236.8,218.3" transform="translate(-93.617 -87.039)" fill="#1c404e"/>
          <path id="Path_285" data-name="Path 285" d="M184.316,239.835H171.344a2.036,2.036,0,0,1-2.036-2.036v-6.122a2.036,2.036,0,0,1,2.036-2.036h12.972Z" transform="translate(-70.814 -96.049)" fill="#1c404e"/>
          <rect id="Rectangle_1860" data-name="Rectangle 1860" width="15.008" height="10.194" transform="translate(114.352 133.592)" fill="#1c404e"/>
          <path id="Path_286" data-name="Path 286" d="M236.8,239.835H223.827V229.641H236.8a2.036,2.036,0,0,1,2.036,2.036V237.8a2.036,2.036,0,0,1-2.036,2.036" transform="translate(-93.617 -96.049)" fill="#1c404e"/>
          <path id="Path_287" data-name="Path 287" d="M184.316,261.375H171.344a2.036,2.036,0,0,1-2.036-2.036v-6.122a2.036,2.036,0,0,1,2.036-2.036h12.972Z" transform="translate(-70.814 -105.058)" fill="#1c404e"/>
          <rect id="Rectangle_1861" data-name="Rectangle 1861" width="15.008" height="10.194" transform="translate(114.352 146.123)" fill="#1c404e"/>
          <path id="Path_288" data-name="Path 288" d="M236.8,261.375H223.827V251.181H236.8a2.036,2.036,0,0,1,2.036,2.036v6.122a2.036,2.036,0,0,1-2.036,2.036" transform="translate(-93.617 -105.058)" fill="#1c404e"/>
        </g>
      </g>
      <text id="Kilde" transform="translate(101.548 149.654)" fill="#fff" font-size="1" font-family="SegoeUI, Segoe UI"><tspan x="0" y="0">Kilde</tspan></text>
      <g id="Group_1072" data-name="Group 1072">
        <g id="Group_1071" data-name="Group 1071" clip-path="url(#clip-path)">
          <path id="Path_289" data-name="Path 289" d="M240.542,19.441a5.491,5.491,0,1,1-5.491-5.491,5.491,5.491,0,0,1,5.491,5.491" transform="translate(-96.015 -5.835)" fill="#1c404e"/>
          <path id="Path_290" data-name="Path 290" d="M181.2,19.441a5.491,5.491,0,1,1-5.491-5.491,5.491,5.491,0,0,1,5.491,5.491" transform="translate(-71.195 -5.835)" fill="#1c404e"/>
          <path id="Path_291" data-name="Path 291" d="M209.571,16.736a.862.862,0,1,1-.862-.862.862.862,0,0,1,.862.862" transform="translate(-86.933 -6.639)" fill="#1c404e"/>
          <path id="Path_292" data-name="Path 292" d="M209.571,22.167a.862.862,0,1,1-.862-.862.862.862,0,0,1,.862.862" transform="translate(-86.933 -8.911)" fill="#1c404e"/>
          <path id="Path_293" data-name="Path 293" d="M209.571,27.6a.862.862,0,1,1-.862-.862.862.862,0,0,1,.862.862" transform="translate(-86.933 -11.182)" fill="#1c404e"/>
          <path id="Path_294" data-name="Path 294" d="M238.386,19.723a2.723,2.723,0,1,1-2.689,0" transform="translate(-98.005 -8.249)" fill="none" stroke="#fff" stroke-miterlimit="10" stroke-width="1"/>
          <line id="Line_47" data-name="Line 47" y2="2.973" transform="translate(139.037 10.65)" fill="none" stroke="#fff" stroke-miterlimit="10" stroke-width="1"/>
          <path id="Path_295" data-name="Path 295" d="M240.542,57.526a5.491,5.491,0,1,1-5.491-5.491,5.491,5.491,0,0,1,5.491,5.491" transform="translate(-96.015 -21.764)" fill="#1c404e"/>
          <path id="Path_296" data-name="Path 296" d="M181.2,57.526a5.491,5.491,0,1,1-5.491-5.491,5.491,5.491,0,0,1,5.491,5.491" transform="translate(-71.195 -21.764)" fill="#1c404e"/>
          <path id="Path_297" data-name="Path 297" d="M210.871,57.526a5.491,5.491,0,1,1-5.491-5.491,5.491,5.491,0,0,1,5.491,5.491" transform="translate(-83.605 -21.764)" fill="#1c404e"/>
          <path id="Path_298" data-name="Path 298" d="M204.24,58.985l2.354,1.426-2.354,1.426Z" transform="translate(-85.424 -24.671)" fill="none" stroke="#fff" stroke-miterlimit="10" stroke-width="1"/>
          <path id="Path_299" data-name="Path 299" d="M235.632,58.985l2.354,1.426-2.354,1.426Z" transform="translate(-98.554 -24.671)" fill="none" stroke="#fff" stroke-miterlimit="10" stroke-width="1"/>
          <line id="Line_48" data-name="Line 48" y2="2.852" transform="translate(123.121 34.314)" fill="none" stroke="#fff" stroke-linecap="square" stroke-miterlimit="10" stroke-width="1"/>
          <line id="Line_49" data-name="Line 49" y2="2.852" transform="translate(124.543 34.314)" fill="none" stroke="#fff" stroke-linecap="square" stroke-miterlimit="10" stroke-width="1"/>
          <line id="Line_50" data-name="Line 50" y2="2.852" transform="translate(140.441 34.314)" fill="none" stroke="#fff" stroke-linecap="square" stroke-miterlimit="10" stroke-width="1"/>
          <path id="Path_300" data-name="Path 300" d="M180.856,61.837,178.5,60.411l2.354-1.426Z" transform="translate(-74.659 -24.671)" fill="none" stroke="#fff" stroke-miterlimit="10" stroke-width="1"/>
          <line id="Line_51" data-name="Line 51" y1="2.852" transform="translate(102.833 34.314)" fill="none" stroke="#fff" stroke-linecap="square" stroke-miterlimit="10" stroke-width="1"/>
          <path id="Path_301" data-name="Path 301" d="M193.667,95.1A21.783,21.783,0,1,0,215.45,116.88,21.783,21.783,0,0,0,193.667,95.1m0,32.063a10.28,10.28,0,1,1,10.28-10.28,10.28,10.28,0,0,1-10.28,10.28" transform="translate(-71.891 -39.775)" fill="#1c404e"/>
          <path id="Path_302" data-name="Path 302" d="M204.878,105.059l2.589-1.89,2.589,1.89" transform="translate(-85.691 -43.151)" fill="none" stroke="#fff" stroke-miterlimit="10" stroke-width="2"/>
          <path id="Path_303" data-name="Path 303" d="M210.056,158.663l-2.589,1.89-2.589-1.89" transform="translate(-85.691 -66.362)" fill="none" stroke="#fff" stroke-miterlimit="10" stroke-width="2"/>
          <path id="Path_304" data-name="Path 304" d="M235.451,128.09l1.89,2.589-1.89,2.589" transform="translate(-98.479 -53.574)" fill="none" stroke="#fff" stroke-miterlimit="10" stroke-width="2"/>
          <path id="Path_305" data-name="Path 305" d="M181.847,133.268l-1.89-2.589,1.89-2.589" transform="translate(-75.268 -53.574)" fill="none" stroke="#fff" stroke-miterlimit="10" stroke-width="2"/>
        </g>
      </g>
      <text id="OK" transform="translate(117.942 76.394)" fill="#fff" font-size="3" font-family="SegoeUI, Segoe UI"><tspan x="0" y="0">OK</tspan></text>
      <text id="_1" data-name="1" transform="translate(104.842 110.088)" fill="#fff" font-size="1" font-family="SegoeUI, Segoe UI"><tspan x="0" y="0">1</tspan></text>
      <text id="_2" data-name="2" transform="translate(120.025 111.088)" fill="#fff" font-size="2" font-family="SegoeUI, Segoe UI"><tspan x="0" y="0">2</tspan></text>
      <text id="_3" data-name="3" transform="translate(135.803 113.088)" fill="#fff" font-size="4" font-family="SegoeUI, Segoe UI"><tspan x="0" y="0">3</tspan></text>
      <text id="_4" data-name="4" transform="translate(103.89 124.619)" fill="#fff" font-size="3" font-family="SegoeUI, Segoe UI"><tspan x="0" y="0">4</tspan></text>
      <text id="_5" data-name="5" transform="translate(119.801 124.619)" fill="#fff" font-size="3" font-family="SegoeUI, Segoe UI"><tspan x="0" y="0">5</tspan></text>
      <text id="_6" data-name="6" transform="translate(135.675 124.619)" fill="#fff" font-size="3" font-family="SegoeUI, Segoe UI"><tspan x="0" y="0">6</tspan></text>
      <text id="_7" data-name="7" transform="translate(104.254 136.151)" fill="#fff" font-size="2" font-family="SegoeUI, Segoe UI"><tspan x="0" y="0">7</tspan></text>
      <text id="_8" data-name="8" transform="translate(119.808 137.151)" fill="#fff" font-size="3" font-family="SegoeUI, Segoe UI"><tspan x="0" y="0">8</tspan></text>
      <text id="_9" data-name="9" transform="translate(135.719 137.151)" fill="#fff" font-size="3" font-family="SegoeUI, Segoe UI"><tspan x="0" y="0">9</tspan></text>
      <text id="_0" data-name="0" transform="translate(119.795 149.682)" fill="#fff" font-size="3" font-family="SegoeUI, Segoe UI"><tspan x="0" y="0">0</tspan></text>
      <g id="Group_1074" data-name="Group 1074">
        <g id="Group_1073" data-name="Group 1073" clip-path="url(#clip-path)">
          <path id="Path_306" data-name="Path 306" d="M237.15,258.861a1.5,1.5,0,1,1-1.5-1.5,1.5,1.5,0,0,1,1.5,1.5" transform="translate(-97.93 -107.641)" fill="#ff6464"/>
          <path id="Path_307" data-name="Path 307" d="M202.239,289.557a.676.676,0,0,1,0-.965.76.76,0,0,1,1.015,0,.678.678,0,0,1,0,.965.762.762,0,0,1-1.015,0m1.077,4.76h-1.155V290.3h1.155Z" transform="translate(-84.503 -120.624)" fill="#1c404e"/>
          <path id="Path_308" data-name="Path 308" d="M213.226,291.119a1.946,1.946,0,0,1,.515,1.44v2.681h-1.155v-2.525a1.142,1.142,0,0,0-.272-.821.98.98,0,0,0-.742-.284.994.994,0,0,0-.747.284,1.131,1.131,0,0,0-.276.821v2.525h-1.155v-2.525a1.142,1.142,0,0,0-.273-.821.979.979,0,0,0-.742-.284,1,1,0,0,0-.755.284,1.131,1.131,0,0,0-.276.821v2.525h-1.155v-4.571h1.155v.553a1.546,1.546,0,0,1,.574-.454,1.791,1.791,0,0,1,.771-.165,1.985,1.985,0,0,1,.957.227,1.592,1.592,0,0,1,.652.647,1.657,1.657,0,0,1,.647-.636,1.98,1.98,0,0,1,2.277.277" transform="translate(-86.241 -121.546)" fill="#1c404e"/>
          <path id="Path_309" data-name="Path 309" d="M225.058,293.3h-3.342a1.132,1.132,0,0,0,.347.776,1.065,1.065,0,0,0,.75.28.943.943,0,0,0,.916-.553h1.246a2.081,2.081,0,0,1-.759,1.085,2.211,2.211,0,0,1-1.378.425,2.384,2.384,0,0,1-1.184-.293,2.059,2.059,0,0,1-.816-.829,2.54,2.54,0,0,1-.293-1.238,2.588,2.588,0,0,1,.289-1.246,2.016,2.016,0,0,1,.809-.825,2.6,2.6,0,0,1,2.364-.008,1.971,1.971,0,0,1,.8.8,2.412,2.412,0,0,1,.284,1.184,2.781,2.781,0,0,1-.033.446m-1.163-.775a.918.918,0,0,0-.322-.714,1.141,1.141,0,0,0-.767-.268,1.048,1.048,0,0,0-.722.259,1.144,1.144,0,0,0-.359.722Z" transform="translate(-92.244 -121.541)" fill="#1c404e"/>
          <path id="Path_310" data-name="Path 310" d="M191.865,291.042v-2.368H190.71v5.759h1.155v-3.391Z" transform="translate(-79.766 -120.74)" fill="#1c404e"/>
          <path id="Path_311" data-name="Path 311" d="M198.308,288.674v5.759h1.155v-5.759Z" transform="translate(-82.943 -120.74)" fill="#1c404e"/>
          <path id="Path_312" data-name="Path 312" d="M194.516,294.309h0a1.245,1.245,0,0,1-1.245-1.245h2.49a1.245,1.245,0,0,1-1.245,1.245" transform="translate(-80.837 -122.576)" fill="#1c404e"/>
        </g>
      </g>
      <text id="Input" transform="translate(100.793 13.59)" fill="#fff" font-size="2" font-family="SegoeUI, Segoe UI"><tspan x="0" y="0">Input</tspan></text>
      <g id="Group_1076" data-name="Group 1076">
        <g id="Group_1075" data-name="Group 1075" clip-path="url(#clip-path)">
          <path id="Path_313" data-name="Path 313" d="M244.1,123.038c1.9,6.564,9.716,10.07,17.458,7.829s12.478-9.378,10.579-15.943-9.716-10.07-17.459-7.829S242.2,116.473,244.1,123.038" transform="translate(-101.921 -44.51)" fill="#fff"/>
          <path id="Path_314" data-name="Path 314" d="M244.1,123.038c1.9,6.564,9.716,10.07,17.458,7.829s12.478-9.378,10.579-15.943-9.716-10.07-17.459-7.829S242.2,116.473,244.1,123.038Z" transform="translate(-101.921 -44.51)" fill="none" stroke="#1c404e" stroke-miterlimit="10" stroke-width="2"/>
          <path id="Path_315" data-name="Path 315" d="M244.1,170.8c1.9,6.564,9.716,10.07,17.458,7.829s12.478-9.378,10.579-15.943-9.716-10.07-17.459-7.829S242.2,164.24,244.1,170.8" transform="translate(-101.921 -64.489)" fill="#fff"/>
          <path id="Path_316" data-name="Path 316" d="M244.1,170.8c1.9,6.564,9.716,10.07,17.458,7.829s12.478-9.378,10.579-15.943-9.716-10.07-17.459-7.829S242.2,164.24,244.1,170.8Z" transform="translate(-101.921 -64.489)" fill="none" stroke="#1c404e" stroke-miterlimit="10" stroke-width="2"/>
          <path id="Path_317" data-name="Path 317" d="M244.1,218.571c1.9,6.564,9.716,10.07,17.458,7.829s12.478-9.378,10.579-15.943-9.716-10.07-17.459-7.829S242.2,212.006,244.1,218.571" transform="translate(-101.921 -84.467)" fill="#fff"/>
          <path id="Path_318" data-name="Path 318" d="M244.1,218.571c1.9,6.564,9.716,10.07,17.458,7.829s12.478-9.378,10.579-15.943-9.716-10.07-17.459-7.829S242.2,212.006,244.1,218.571Z" transform="translate(-101.921 -84.467)" fill="none" stroke="#1c404e" stroke-miterlimit="10" stroke-width="2"/>
        </g>
      </g>
    </g>
  </g>
</svg>
