<svg id="Group_1153" data-name="Group 1153" xmlns="http://www.w3.org/2000/svg" xmlns:xlink="http://www.w3.org/1999/xlink" width="427.686" height="423" viewBox="0 0 427.686 423">
  <defs>
    <clipPath id="clip-path">
      <rect id="Rectangle_1855" data-name="Rectangle 1855" width="427.686" height="423" fill="none"/>
    </clipPath>
    <clipPath id="clip-path-3">
      <rect id="Rectangle_1849" data-name="Rectangle 1849" width="233.001" height="24.535" fill="none"/>
    </clipPath>
    <clipPath id="clip-path-5">
      <rect id="Rectangle_1851" data-name="Rectangle 1851" width="39.351" height="20.67" fill="none"/>
    </clipPath>
    <clipPath id="clip-path-6">
      <rect id="Rectangle_1853" data-name="Rectangle 1853" width="25.181" height="88.476" fill="none"/>
    </clipPath>
  </defs>
  <g id="Group_1064" data-name="Group 1064" clip-path="url(#clip-path)">
    <g id="Group_1055" data-name="Group 1055">
      <g id="Group_1054" data-name="Group 1054" clip-path="url(#clip-path)">
        <g id="Group_1053" data-name="Group 1053" transform="translate(179.109 398.465)" opacity="0.3">
          <g id="Group_1052" data-name="Group 1052">
            <g id="Group_1051" data-name="Group 1051" clip-path="url(#clip-path-3)">
              <path id="Path_258" data-name="Path 258" d="M242.748,432H82.112a72.817,72.817,0,0,1-27.826-5.433S10.038,407.475,15.9,407.475l180.018-.01c9.693,0,49.435,16.148,49.435,16.148,5.191,2.157,3.257,8.387-2.6,8.387" transform="translate(-15.364 -407.465)" fill="#1c404e"/>
            </g>
          </g>
        </g>
      </g>
    </g>
    <path id="Path_259" data-name="Path 259" d="M146.465,405.721h184.2l-77.151-33.284H69.314Z" transform="translate(26.752 -8.226)" fill="#1c404e"/>
    <g id="Group_1063" data-name="Group 1063">
      <g id="Group_1062" data-name="Group 1062" clip-path="url(#clip-path)">
        <path id="Path_260" data-name="Path 260" d="M177.657,133c55.464,17.312,60.358-24.392,60.358-44.063v-41.7" transform="translate(9.578 -1.043)" fill="none" stroke="#1c404e" stroke-miterlimit="10" stroke-width="2"/>
        <path id="Path_261" data-name="Path 261" d="M192.57,89.846s-11.419-44.063,11.963-42.489c0,0,66.286,26.216,70.092-9.454S233.612-6.155,211.162,4.018s-22.151,18.938-22.151,18.938S173.3,26.4,172.1,56.314c-.613,15.244,1.984,29.86,20.472,33.532" transform="translate(-21.544 0)" fill="#1c404e"/>
        <path id="Path_262" data-name="Path 262" d="M166.831,86.252s24.21-25.381.714-54.612Z" transform="translate(80.763 -0.699)" fill="#1c404e"/>
        <path id="Path_263" data-name="Path 263" d="M206.106,81.246s3.007,6.252,5.121,11.346c3,7.218-5.212,9.39-8.419,7.649" transform="translate(10.223 -1.794)" fill="none" stroke="#1c404e" stroke-miterlimit="10" stroke-width="2"/>
        <path id="Path_264" data-name="Path 264" d="M193.451,81.92a3.611,3.611,0,1,0,3.608-3.48,3.546,3.546,0,0,0-3.608,3.48" transform="translate(30.916 -1.733)" fill="#1c404e"/>
        <path id="Path_265" data-name="Path 265" d="M216.36,81.92a3.611,3.611,0,1,0,3.608-3.48,3.546,3.546,0,0,0-3.608,3.48" transform="translate(-15.217 -1.733)" fill="#1c404e"/>
        <line id="Line_37" data-name="Line 37" y2="70.835" transform="translate(167.467 89.314)" fill="none" stroke="#1c404e" stroke-miterlimit="10" stroke-width="2"/>
        <line id="Line_38" data-name="Line 38" y2="26.89" transform="translate(226.4 133.162)" fill="none" stroke="#1c404e" stroke-miterlimit="10" stroke-width="2"/>
        <g id="Group_1058" data-name="Group 1058" transform="translate(187.049 132.508)" opacity="0.3">
          <g id="Group_1057" data-name="Group 1057" transform="translate(0)">
            <g id="Group_1056" data-name="Group 1056" clip-path="url(#clip-path-5)">
              <path id="Path_266" data-name="Path 266" d="M237.916,156.148s-16.5,1.549-39.352-20.647c0,0,23.516,7.529,39.352.654Z" transform="translate(-198.565 -135.501)" fill="#1c404e"/>
            </g>
          </g>
        </g>
        <path id="Path_267" data-name="Path 267" d="M13.976,13.562A13.8,13.8,0,0,1,.005.292L0,0H27.952l-.005.292A13.8,13.8,0,0,1,13.976,13.562" transform="translate(200.418 105.684)" fill="#1c404e"/>
        <path id="Path_268" data-name="Path 268" d="M321.527,163.766c-73.859,0-69.55,38.262-71.4,57.156-3.485,35.575-8.939,94.272-8.939,94.272a18.512,18.512,0,0,0,4.891,14.751A19.056,19.056,0,0,0,252.569,335l67.938,42.33,16.87-29.247-49.75-35.008,25.182-79.9" transform="translate(-154.06 -3.617)" fill="#fff"/>
        <path id="Path_269" data-name="Path 269" d="M321.527,163.766c-73.859,0-69.55,38.262-71.4,57.156-3.485,35.575-8.939,94.272-8.939,94.272a18.512,18.512,0,0,0,4.891,14.751A19.056,19.056,0,0,0,252.569,335l67.938,42.33,16.87-29.247-49.75-35.008,25.182-79.9" transform="translate(-154.06 -3.617)" fill="none" stroke="#1c404e" stroke-miterlimit="10" stroke-width="2"/>
        <path id="Path_270" data-name="Path 270" d="M131.921,163.766c50.93-.1,63.275,23.686,65.467,42.546L212.26,315.194a18.511,18.511,0,0,1-4.891,14.751A19.057,19.057,0,0,1,200.878,335l-71.031,34.068L119.256,353.6l6.4-5.225a10.707,10.707,0,0,1,1.944-1.6c.015-.009.03-.016.045-.026l38.172-37.4-6.923-80.57" transform="translate(94.412 -3.617)" fill="#fff"/>
        <path id="Path_271" data-name="Path 271" d="M131.921,163.766c50.93-.1,63.275,23.686,65.467,42.546L212.26,315.194a18.511,18.511,0,0,1-4.891,14.751A19.057,19.057,0,0,1,200.878,335l-71.031,34.068L119.256,353.6l6.4-5.225a10.707,10.707,0,0,1,1.944-1.6c.015-.009.03-.016.045-.026l38.172-37.4-6.923-80.57" transform="translate(94.412 -3.617)" fill="none" stroke="#1c404e" stroke-miterlimit="10" stroke-width="2"/>
        <path id="Path_272" data-name="Path 272" d="M67.349,404.177h179.86c10.007,0,18.12-7.826,18.12-17.48V276.072c0-9.654-8.113-17.481-18.12-17.481H67.349c-10.007,0-18.12,7.827-18.12,17.481V386.7c0,9.654,8.113,17.48,18.12,17.48" transform="translate(112.454 -5.712)" fill="#ff8278"/>
        <rect id="Rectangle_1852" data-name="Rectangle 1852" width="216.1" height="145.586" rx="23" transform="translate(161.683 252.88)" fill="none" stroke="#1c404e" stroke-miterlimit="10" stroke-width="2"/>
        <path id="Path_273" data-name="Path 273" d="M152.481,347.431c-11.624,0-21.226-9.12-21.4-20.33l-.007-.448h42.823l-.007.448c-.178,11.21-9.78,20.33-21.4,20.33" transform="translate(120.928 -7.215)" fill="#fff"/>
        <path id="Path_274" data-name="Path 274" d="M257.5,163.667s-19.955,29.1-58.934.1" transform="translate(-31.098 -3.615)" fill="#fff"/>
        <path id="Path_275" data-name="Path 275" d="M257.5,163.667s-19.955,29.1-58.934.1" transform="translate(-31.098 -3.615)" fill="none" stroke="#1c404e" stroke-miterlimit="10" stroke-width="2"/>
        <line id="Line_39" data-name="Line 39" x1="13.36" y1="3.456" transform="translate(224.903 67.123)" fill="none" stroke="#1c404e" stroke-miterlimit="10" stroke-width="2"/>
        <line id="Line_40" data-name="Line 40" x1="16.267" y2="6.841" transform="translate(190.457 66.358)" fill="none" stroke="#1c404e" stroke-miterlimit="10" stroke-width="2"/>
        <line id="Line_41" data-name="Line 41" y2="10.379" transform="translate(121.516 345.716)" fill="#fff"/>
        <line id="Line_42" data-name="Line 42" y2="10.379" transform="translate(121.516 345.716)" fill="none" stroke="#1c404e" stroke-miterlimit="10" stroke-width="2"/>
        <line id="Line_43" data-name="Line 43" x1="49.904" transform="translate(377.783 356.094)" fill="#fff"/>
        <line id="Line_44" data-name="Line 44" x1="49.904" transform="translate(377.783 356.094)" fill="none" stroke="#1c404e" stroke-miterlimit="10" stroke-width="2"/>
        <line id="Line_45" data-name="Line 45" x1="138.174" transform="translate(0 356.094)" fill="#fff"/>
        <line id="Line_46" data-name="Line 46" x1="138.174" transform="translate(0 356.094)" fill="none" stroke="#1c404e" stroke-miterlimit="10" stroke-width="2"/>
        <g id="Group_1061" data-name="Group 1061" transform="translate(133.568 229.559)" opacity="0.3">
          <g id="Group_1060" data-name="Group 1060" transform="translate(0)">
            <g id="Group_1059" data-name="Group 1059" clip-path="url(#clip-path-6)">
              <path id="Path_276" data-name="Path 276" d="M290.482,234.744,276.708,323.22,265.3,314.639Z" transform="translate(-265.301 -234.744)" fill="#1c404e"/>
            </g>
          </g>
        </g>
      </g>
    </g>
  </g>
</svg>
