<svg id="MKTV_Hovedlogo_Blå_Hvit_RGB" xmlns="http://www.w3.org/2000/svg" width="117" height="33.743" viewBox="0 0 117 33.743">
  <g id="Group_1150" data-name="Group 1150">
    <path id="Path_319" data-name="Path 319" d="M21.528,2.917a5.226,5.226,0,0,1,5.226,5.226V22.682h2.917V8.143a8.143,8.143,0,1,0-16.286,0v1.966l-.094-.078A8.151,8.151,0,0,0,0,16.364v6.318H2.917V16.364a5.226,5.226,0,0,1,10.452,0v9.157h2.917V8.143A5.25,5.25,0,0,1,21.528,2.917Z" fill="#008ce6"/>
    <path id="Path_320" data-name="Path 320" d="M51.043,78.137a8.149,8.149,0,0,0,8.143-8.143V52.6H56.269V69.978a5.226,5.226,0,0,1-10.452,0V60.806H42.9v9.173A8.162,8.162,0,0,0,51.043,78.137Z" transform="translate(-36.208 -44.394)" fill="#008ce6"/>
  </g>
  <path id="Path_321" data-name="Path 321" d="M257.741,67.077V52.6h-2.418l-5.179,11.638L244.934,52.6H242.5V67.077h2.215V56.7l4.649,10.374h1.544L255.526,56.7V67.077Z" transform="translate(-204.67 -44.394)" fill="#fff"/>
  <path id="Path_322" data-name="Path 322" d="M362.534,70.9a5.659,5.659,0,0,0-5.834,5.9,5.571,5.571,0,0,0,5.725,5.912,5.737,5.737,0,0,0,5.944-5.912,5.659,5.659,0,0,0-5.834-5.9Zm2.4,8.908a3.591,3.591,0,0,1-2.512,1c-1.591,0-3.463-1.045-3.463-4.009a4.263,4.263,0,0,1,1.061-3.011,3.388,3.388,0,0,1,2.465-.983c1.794,0,3.588,1.232,3.588,3.994A4.046,4.046,0,0,1,364.937,79.808Z" transform="translate(-301.055 -59.84)" fill="#fff"/>
  <path id="Path_323" data-name="Path 323" d="M457.247,62.013V46.6H455v5.772l-.156-.2a5.272,5.272,0,0,0-3.931-1.778c-3.136,0-5.413,2.465-5.413,5.85,0,3.448,2.262,5.959,5.4,5.959a4.767,4.767,0,0,0,3.947-1.9l.172-.234v1.95ZM451.4,60.3a3.461,3.461,0,0,1-2.5-1.076,4.139,4.139,0,0,1-1.108-2.98,3.987,3.987,0,0,1,1.123-2.933,3.5,3.5,0,0,1,2.5-1.014,3.691,3.691,0,0,1,3.619,3.994A3.716,3.716,0,0,1,451.4,60.3Z" transform="translate(-376.002 -39.33)" fill="#fff"/>
  <path id="Path_324" data-name="Path 324" d="M552.636,83.535V72.1h-2.215v6.38c0,2.075-1.123,3.323-3.026,3.323-1.888,0-3-1.248-3-3.323V72.1h-2.2v6.739c0,3,1.794,4.867,4.7,4.867a4.242,4.242,0,0,0,3.37-1.529l.172-.218v1.576Z" transform="translate(-457.617 -60.852)" fill="#fff"/>
  <path id="Path_325" data-name="Path 325" d="M643.947,72.8c1.872,0,3,1.248,3,3.323v6.4h2.2V75.767c0-3-1.794-4.867-4.7-4.867a4.456,4.456,0,0,0-3.962,2.246l-.078.156-.078-.156a4.349,4.349,0,0,0-4.087-2.246,4.4,4.4,0,0,0-3.37,1.482l-.156.2v-1.5H630.5V82.522h2.215v-6.4c0-2.075,1.123-3.323,3.026-3.323,1.888,0,3,1.248,3,3.323v6.4h2.2v-6.4C640.921,74.051,642.044,72.8,643.947,72.8Z" transform="translate(-532.142 -59.84)" fill="#fff"/>
  <path id="Path_326" data-name="Path 326" d="M247.729,176.7h-1.4l-2.9,3.042V176.7H242.3v6.162h1.123v-1.778l.936-.936,2.028,2.714h1.373l-2.621-3.494Z" transform="translate(-204.501 -149.135)" fill="#fff"/>
  <path id="Path_327" data-name="Path 327" d="M289.318,181.427l.593,1.435H291.1l-2.652-6.162h-1.03l-2.714,6.162h1.17l.624-1.435Zm-1.4-3.338,1,2.324H286.9Z" transform="translate(-240.287 -149.135)" fill="#fff"/>
  <path id="Path_328" data-name="Path 328" d="M340.975,182.684a2.433,2.433,0,0,0,.733-.328,1.517,1.517,0,0,0,.468-.53,1.589,1.589,0,0,0,.172-.733,1.511,1.511,0,0,0-.094-.562,1.257,1.257,0,0,0-.25-.421,1.56,1.56,0,0,0-.39-.312c-.094-.047-.187-.109-.3-.156l-.125-.047.109-.078c.047-.031.094-.062.156-.109a1.023,1.023,0,0,0,.281-.3,1.818,1.818,0,0,0,.2-.39,1.625,1.625,0,0,0,.078-.515,1.429,1.429,0,0,0-.546-1.17,2.36,2.36,0,0,0-1.482-.437H337.2v6.146h2.87A2.717,2.717,0,0,0,340.975,182.684Zm-2.668-5.054h1.529a1.226,1.226,0,0,1,.78.2.674.674,0,0,1,.265.562.654.654,0,0,1-.3.608,1.628,1.628,0,0,1-.811.2h-1.451V177.63Zm0,4.15v-1.622h1.669a1.565,1.565,0,0,1,.92.218.661.661,0,0,1,.3.593.688.688,0,0,1-.3.608,1.443,1.443,0,0,1-.827.2h-1.763Z" transform="translate(-284.597 -149.05)" fill="#fff"/>
  <path id="Path_329" data-name="Path 329" d="M534.7,176.7l-1.841,4.68-1.81-4.68H529.8l2.512,6.162h1.045l2.574-6.162Z" transform="translate(-447.151 -149.135)" fill="#fff"/>
  <path id="Path_330" data-name="Path 330" d="M386.686,177.761V176.7H382.1v6.162h4.586v-1.03h-3.432V180.3H386.3v-1.03h-3.042v-1.513Z" transform="translate(-322.492 -149.135)" fill="#fff"/>
  <path id="Path_331" data-name="Path 331" d="M425.5,176.7v6.162h4.243v-1.03H426.67V176.7Z" transform="translate(-359.122 -149.135)" fill="#fff"/>
  <rect id="Rectangle_1891" data-name="Rectangle 1891" width="2.777" height="1.03" transform="translate(71.838 30.139)" fill="#fff"/>
  <path id="Path_332" data-name="Path 332" d="M493.708,176.7H488.7v1.061h1.934v5.1h1.154v-5.1h1.919Z" transform="translate(-412.463 -149.135)" fill="#fff"/>
</svg>
