<svg xmlns="http://www.w3.org/2000/svg" width="112" height="29.587" viewBox="0 0 112 29.587">
  <g id="Group_1176" data-name="Group 1176" transform="translate(-278 -7267)">
    <g id="Group_3" data-name="Group 3" transform="translate(313.879 7276.968)">
      <rect id="Rectangle_214" data-name="Rectangle 214" width="5.477" height="19.382" fill="#ff8278"/>
    </g>
    <g id="Group_4" data-name="Group 4" transform="translate(327.305 7271.854)">
      <path id="Path_252" data-name="Path 252" d="M1407.031,540.246c3.946,0,4.692,3.33,4.692,6.309V559.8h5.522V544.069a8.786,8.786,0,0,0-2.693-6.485,9.068,9.068,0,0,0-6.529-2.283,8.743,8.743,0,0,0-5.183,1.483,8.58,8.58,0,0,0-2.251,2.345l-.047.073-.042-.076a6.6,6.6,0,0,0-.371-.6,7.624,7.624,0,0,0-1.62-1.686,7.383,7.383,0,0,0-2.231-1.138,9.041,9.041,0,0,0-2.756-.4c-2.813,0-4.829,1.07-5.991,3.179l-.1.178V535.8h-5.522v24h5.522V546.555c0-2.978.752-6.309,4.719-6.309,3.926,0,4.677,3.331,4.677,6.309V559.8h5.522V546.555C1402.349,543.577,1403.085,540.246,1407.031,540.246Z" transform="translate(-1381.909 -535.301)" fill="#ff8278"/>
    </g>
    <g id="Group_5" data-name="Group 5" transform="translate(278 7267.496)">
      <rect id="Rectangle_215" data-name="Rectangle 215" width="5.522" height="28.854" fill="#ff8278"/>
    </g>
    <g id="Group_6" data-name="Group 6" transform="translate(300.912 7267.496)">
      <rect id="Rectangle_216" data-name="Rectangle 216" width="5.477" height="28.854" fill="#ff8278"/>
    </g>
    <g id="Group_7" data-name="Group 7" transform="translate(284.906 7280.518)">
      <path id="Path_253" data-name="Path 253" d="M1278.614,565.257a7.34,7.34,0,0,0,7.308-7.195l0-.159H1271.3l0,.159A7.339,7.339,0,0,0,1278.614,565.257Z" transform="translate(-1271.303 -557.903)" fill="#ff8278"/>
    </g>
    <g id="Group_8" data-name="Group 8" transform="translate(313.363 7267)">
      <path id="Path_254" data-name="Path 254" d="M1348.793,522.639a3.255,3.255,0,1,0,3.256,3.255A3.26,3.26,0,0,0,1348.793,522.639Z" transform="translate(-1345.537 -522.639)" fill="#ff8278"/>
    </g>
    <path id="Path_255" data-name="Path 255" d="M1508.45,543.751a10.75,10.75,0,0,0-10.83-8.467c-6.847,0-11.447,4.847-11.447,12.059a13.478,13.478,0,0,0,3.02,9.157,11.1,11.1,0,0,0,8.564,3.524c9.7,0,11.073-7.342,11.073-7.342h-5c-.82,1.836-2.863,3.019-6.075,3.019a6.465,6.465,0,0,1-6.541-6.211h17.607A18.315,18.315,0,0,0,1508.45,543.751Zm-17.19,1.416c0-2.682,2.706-5.594,6.36-5.594,3.532,0,6.32,2.912,6.32,5.594Z" transform="translate(-1118.9 6736.563)" fill="#ff8278"/>
  </g>
</svg>
