<svg id="Group_1079" data-name="Group 1079" xmlns="http://www.w3.org/2000/svg" xmlns:xlink="http://www.w3.org/1999/xlink" width="150.591" height="188" viewBox="0 0 150.591 188">
  <defs>
    <clipPath id="clip-path">
      <rect id="Rectangle_1866" data-name="Rectangle 1866" width="150.591" height="188" fill="none"/>
    </clipPath>
    <clipPath id="clip-path-3">
      <rect id="Rectangle_1856" data-name="Rectangle 1856" width="14.083" height="104.225" fill="none"/>
    </clipPath>
  </defs>
  <g id="Group_1077" data-name="Group 1077" clip-path="url(#clip-path)">
    <g id="Group_1070" data-name="Group 1070">
      <g id="Group_1069" data-name="Group 1069" clip-path="url(#clip-path)">
        <path id="Path_277" data-name="Path 277" d="M55.232,206.522l71.017-59.086L99.9,92.351S131.22,67.673,140.79,61.972c11.889-7.083,8.514-22.013-4.935-19.084C124.625,45.334,67.57,89.235,67.57,89.235c2.151-9.4,15.525-47.668,5.4-50.394S40.694,86.427,31.231,138.852L.646,164.741" transform="translate(-0.315 -18.916)" fill="#fff"/>
        <path id="Path_278" data-name="Path 278" d="M55.232,206.522l71.017-59.086L99.9,92.351S131.22,67.673,140.79,61.972c11.889-7.083,8.514-22.013-4.935-19.084C124.625,45.334,67.57,89.235,67.57,89.235c2.151-9.4,15.525-47.668,5.4-50.394S40.694,86.427,31.231,138.852L.646,164.741" transform="translate(-0.315 -18.916)" fill="none" stroke="#1c404e" stroke-miterlimit="10" stroke-width="2"/>
        <g id="Group_1068" data-name="Group 1068" transform="translate(74.093 60.305)" opacity="0.3">
          <g id="Group_1067" data-name="Group 1067">
            <g id="Group_1066" data-name="Group 1066" clip-path="url(#clip-path-3)">
              <path id="Path_279" data-name="Path 279" d="M151.221,117.86l-6.412,5.2v88.192c-.048,8.866,6.835,12.272,9.216,10.292l4.867-4.049Z" transform="translate(-144.809 -117.86)" fill="#1c404e"/>
            </g>
          </g>
        </g>
        <path id="Path_280" data-name="Path 280" d="M200.756,163.046H167.268a9.927,9.927,0,0,1-9.927-9.927V10.927A9.927,9.927,0,0,1,167.268,1h33.488a9.927,9.927,0,0,1,9.927,9.927V153.12a9.927,9.927,0,0,1-9.927,9.927" transform="translate(-76.835 -0.488)" fill="#ff8278"/>
        <rect id="Rectangle_1857" data-name="Rectangle 1857" width="53.342" height="162.046" rx="14" transform="translate(80.506 0.512)" fill="none" stroke="#1c404e" stroke-miterlimit="10" stroke-width="2"/>
        <path id="Path_281" data-name="Path 281" d="M182.508,195.527H171.1a1.791,1.791,0,0,1-1.791-1.791v-5.385a1.791,1.791,0,0,1,1.791-1.791h11.41Z" transform="translate(-82.679 -91.105)" fill="#1c404e"/>
        <rect id="Rectangle_1858" data-name="Rectangle 1858" width="13.2" height="8.966" transform="translate(100.577 95.456)" fill="#1c404e"/>
        <path id="Path_282" data-name="Path 282" d="M235.237,195.527h-11.41v-8.966h11.41a1.791,1.791,0,0,1,1.791,1.791v5.385a1.791,1.791,0,0,1-1.791,1.791" transform="translate(-109.303 -91.105)" fill="#1c404e"/>
        <path id="Path_283" data-name="Path 283" d="M182.508,217.067H171.1a1.791,1.791,0,0,1-1.791-1.791v-5.385A1.791,1.791,0,0,1,171.1,208.1h11.41Z" transform="translate(-82.679 -101.623)" fill="#1c404e"/>
        <rect id="Rectangle_1859" data-name="Rectangle 1859" width="13.2" height="8.966" transform="translate(100.577 106.478)" fill="#1c404e"/>
        <path id="Path_284" data-name="Path 284" d="M235.237,217.067h-11.41V208.1h11.41a1.791,1.791,0,0,1,1.791,1.791v5.385a1.791,1.791,0,0,1-1.791,1.791" transform="translate(-109.303 -101.623)" fill="#1c404e"/>
        <path id="Path_285" data-name="Path 285" d="M182.508,238.607H171.1a1.791,1.791,0,0,1-1.791-1.791v-5.385a1.791,1.791,0,0,1,1.791-1.791h11.41Z" transform="translate(-82.679 -112.142)" fill="#1c404e"/>
        <rect id="Rectangle_1860" data-name="Rectangle 1860" width="13.2" height="8.966" transform="translate(100.577 117.499)" fill="#1c404e"/>
        <path id="Path_286" data-name="Path 286" d="M235.237,238.607h-11.41v-8.966h11.41a1.791,1.791,0,0,1,1.791,1.791v5.385a1.791,1.791,0,0,1-1.791,1.791" transform="translate(-109.303 -112.142)" fill="#1c404e"/>
        <path id="Path_287" data-name="Path 287" d="M182.508,260.147H171.1a1.791,1.791,0,0,1-1.791-1.791v-5.385a1.791,1.791,0,0,1,1.791-1.791h11.41Z" transform="translate(-82.679 -122.661)" fill="#1c404e"/>
        <rect id="Rectangle_1861" data-name="Rectangle 1861" width="13.2" height="8.966" transform="translate(100.577 128.52)" fill="#1c404e"/>
        <path id="Path_288" data-name="Path 288" d="M235.237,260.147h-11.41v-8.966h11.41a1.791,1.791,0,0,1,1.791,1.791v5.385a1.791,1.791,0,0,1-1.791,1.791" transform="translate(-109.303 -122.661)" fill="#1c404e"/>
      </g>
    </g>
    <text id="Kilde" transform="translate(89.315 131.746)" fill="#fff" font-size="1" font-family="SegoeUI, Segoe UI"><tspan x="0" y="0">Kilde</tspan></text>
    <g id="Group_1072" data-name="Group 1072">
      <g id="Group_1071" data-name="Group 1071" clip-path="url(#clip-path)">
        <path id="Path_289" data-name="Path 289" d="M239.219,18.78a4.83,4.83,0,1,1-4.83-4.83,4.83,4.83,0,0,1,4.83,4.83" transform="translate(-112.103 -6.812)" fill="#1c404e"/>
        <path id="Path_290" data-name="Path 290" d="M179.877,18.78a4.83,4.83,0,1,1-4.83-4.83,4.83,4.83,0,0,1,4.83,4.83" transform="translate(-83.124 -6.812)" fill="#1c404e"/>
        <path id="Path_291" data-name="Path 291" d="M209.363,16.632a.758.758,0,1,1-.758-.758.758.758,0,0,1,.758.758" transform="translate(-101.499 -7.752)" fill="#1c404e"/>
        <path id="Path_292" data-name="Path 292" d="M209.363,22.063a.758.758,0,1,1-.758-.758.758.758,0,0,1,.758.758" transform="translate(-101.499 -10.404)" fill="#1c404e"/>
        <path id="Path_293" data-name="Path 293" d="M209.363,27.494a.758.758,0,1,1-.758-.758.758.758,0,0,1,.758.758" transform="translate(-101.499 -13.056)" fill="#1c404e"/>
        <path id="Path_294" data-name="Path 294" d="M237.9,19.723a2.4,2.4,0,1,1-2.365,0" transform="translate(-114.426 -9.631)" fill="none" stroke="#fff" stroke-miterlimit="10" stroke-width="1"/>
        <line id="Line_47" data-name="Line 47" y2="2.615" transform="translate(122.287 9.367)" fill="none" stroke="#fff" stroke-miterlimit="10" stroke-width="1"/>
        <path id="Path_295" data-name="Path 295" d="M239.219,56.865a4.83,4.83,0,1,1-4.83-4.83,4.83,4.83,0,0,1,4.83,4.83" transform="translate(-112.103 -25.411)" fill="#1c404e"/>
        <path id="Path_296" data-name="Path 296" d="M179.877,56.865a4.83,4.83,0,1,1-4.83-4.83,4.83,4.83,0,0,1,4.83,4.83" transform="translate(-83.124 -25.411)" fill="#1c404e"/>
        <path id="Path_297" data-name="Path 297" d="M209.548,56.865a4.83,4.83,0,1,1-4.83-4.83,4.83,4.83,0,0,1,4.83,4.83" transform="translate(-97.613 -25.411)" fill="#1c404e"/>
        <path id="Path_298" data-name="Path 298" d="M204.24,58.985l2.07,1.254-2.07,1.254Z" transform="translate(-99.738 -28.805)" fill="none" stroke="#fff" stroke-miterlimit="10" stroke-width="1"/>
        <path id="Path_299" data-name="Path 299" d="M235.632,58.985l2.07,1.254-2.07,1.254Z" transform="translate(-115.068 -28.805)" fill="none" stroke="#fff" stroke-miterlimit="10" stroke-width="1"/>
        <line id="Line_48" data-name="Line 48" y2="2.508" transform="translate(108.289 30.181)" fill="none" stroke="#fff" stroke-linecap="square" stroke-miterlimit="10" stroke-width="1"/>
        <line id="Line_49" data-name="Line 49" y2="2.508" transform="translate(109.539 30.181)" fill="none" stroke="#fff" stroke-linecap="square" stroke-miterlimit="10" stroke-width="1"/>
        <line id="Line_50" data-name="Line 50" y2="2.508" transform="translate(123.523 30.181)" fill="none" stroke="#fff" stroke-linecap="square" stroke-miterlimit="10" stroke-width="1"/>
        <path id="Path_300" data-name="Path 300" d="M180.572,61.493l-2.07-1.254,2.07-1.254Z" transform="translate(-87.169 -28.805)" fill="none" stroke="#fff" stroke-miterlimit="10" stroke-width="1"/>
        <line id="Line_51" data-name="Line 51" y1="2.508" transform="translate(90.445 30.18)" fill="none" stroke="#fff" stroke-linecap="square" stroke-miterlimit="10" stroke-width="1"/>
        <path id="Path_301" data-name="Path 301" d="M191.043,95.1A19.159,19.159,0,1,0,210.2,114.256,19.159,19.159,0,0,0,191.043,95.1m0,28.2a9.042,9.042,0,1,1,9.042-9.042,9.042,9.042,0,0,1-9.042,9.042" transform="translate(-83.937 -46.439)" fill="#1c404e"/>
        <path id="Path_302" data-name="Path 302" d="M204.878,104.831l2.277-1.662,2.277,1.662" transform="translate(-100.049 -50.381)" fill="none" stroke="#fff" stroke-miterlimit="10" stroke-width="2"/>
        <path id="Path_303" data-name="Path 303" d="M209.432,158.663l-2.277,1.662-2.277-1.662" transform="translate(-100.049 -77.481)" fill="none" stroke="#fff" stroke-miterlimit="10" stroke-width="2"/>
        <path id="Path_304" data-name="Path 304" d="M235.451,128.09l1.662,2.277-1.662,2.277" transform="translate(-114.979 -62.551)" fill="none" stroke="#fff" stroke-miterlimit="10" stroke-width="2"/>
        <path id="Path_305" data-name="Path 305" d="M181.619,132.644l-1.662-2.277,1.662-2.277" transform="translate(-87.88 -62.551)" fill="none" stroke="#fff" stroke-miterlimit="10" stroke-width="2"/>
      </g>
    </g>
    <text id="OK" transform="translate(103.734 66.553)" fill="#fff" font-size="2" font-family="SegoeUI, Segoe UI"><tspan x="0" y="0">OK</tspan></text>
    <text id="_1" data-name="1" transform="translate(92.212 96.947)" fill="#fff" font-size="1" font-family="SegoeUI, Segoe UI"><tspan x="0" y="0">1</tspan></text>
    <text id="_2" data-name="2" transform="translate(105.566 97.947)" fill="#fff" font-size="2" font-family="SegoeUI, Segoe UI"><tspan x="0" y="0">2</tspan></text>
    <text id="_3" data-name="3" transform="translate(119.443 97.947)" fill="#fff" font-size="2" font-family="SegoeUI, Segoe UI"><tspan x="0" y="0">3</tspan></text>
    <text id="_4" data-name="4" transform="translate(91.374 108.968)" fill="#fff" font-size="2" font-family="SegoeUI, Segoe UI"><tspan x="0" y="0">4</tspan></text>
    <text id="_5" data-name="5" transform="translate(105.369 108.968)" fill="#fff" font-size="2" font-family="SegoeUI, Segoe UI"><tspan x="0" y="0">5</tspan></text>
    <text id="_6" data-name="6" transform="translate(119.331 108.968)" fill="#fff" font-size="2" font-family="SegoeUI, Segoe UI"><tspan x="0" y="0">6</tspan></text>
    <text id="_7" data-name="7" transform="translate(91.695 119.99)" fill="#fff" font-size="2" font-family="SegoeUI, Segoe UI"><tspan x="0" y="0">7</tspan></text>
    <text id="_8" data-name="8" transform="translate(105.375 119.99)" fill="#fff" font-size="2" font-family="SegoeUI, Segoe UI"><tspan x="0" y="0">8</tspan></text>
    <text id="_9" data-name="9" transform="translate(119.369 119.99)" fill="#fff" font-size="2" font-family="SegoeUI, Segoe UI"><tspan x="0" y="0">9</tspan></text>
    <text id="_0" data-name="0" transform="translate(105.364 131.011)" fill="#fff" font-size="2" font-family="SegoeUI, Segoe UI"><tspan x="0" y="0">0</tspan></text>
    <g id="Group_1074" data-name="Group 1074">
      <g id="Group_1073" data-name="Group 1073" clip-path="url(#clip-path)">
        <path id="Path_306" data-name="Path 306" d="M236.787,258.68a1.324,1.324,0,1,1-1.324-1.324,1.323,1.323,0,0,1,1.324,1.324" transform="translate(-114.339 -125.676)" fill="#ff6464"/>
        <path id="Path_307" data-name="Path 307" d="M202.215,289.418a.595.595,0,0,1,0-.849.669.669,0,0,1,.893,0,.6.6,0,0,1,0,.849.67.67,0,0,1-.893,0m.947,4.187h-1.016v-3.538h1.016Z" transform="translate(-98.662 -140.835)" fill="#1c404e"/>
        <path id="Path_308" data-name="Path 308" d="M212.379,291.057a1.712,1.712,0,0,1,.453,1.266v2.358h-1.016v-2.221a1,1,0,0,0-.239-.722.862.862,0,0,0-.653-.25.874.874,0,0,0-.657.25,1,1,0,0,0-.243.722v2.221h-1.016v-2.221a1,1,0,0,0-.24-.722.861.861,0,0,0-.653-.25.884.884,0,0,0-.664.25,1,1,0,0,0-.243.722v2.221h-1.016v-4.02h1.016v.486a1.36,1.36,0,0,1,.5-.4,1.574,1.574,0,0,1,.678-.145,1.746,1.746,0,0,1,.842.2,1.4,1.4,0,0,1,.574.569,1.457,1.457,0,0,1,.57-.559,1.742,1.742,0,0,1,2,.244" transform="translate(-100.692 -141.912)" fill="#1c404e"/>
        <path id="Path_309" data-name="Path 309" d="M224.514,292.97h-2.939a1,1,0,0,0,.3.682.937.937,0,0,0,.66.247.829.829,0,0,0,.805-.486h1.1a1.83,1.83,0,0,1-.668.954,1.945,1.945,0,0,1-1.212.374,2.1,2.1,0,0,1-1.042-.258,1.81,1.81,0,0,1-.718-.729,2.234,2.234,0,0,1-.258-1.089,2.277,2.277,0,0,1,.254-1.1,1.773,1.773,0,0,1,.711-.726,2.285,2.285,0,0,1,2.079-.007,1.734,1.734,0,0,1,.7.7,2.121,2.121,0,0,1,.25,1.041,2.445,2.445,0,0,1-.029.392m-1.023-.682a.807.807,0,0,0-.283-.628,1,1,0,0,0-.675-.235.922.922,0,0,0-.635.228,1.006,1.006,0,0,0-.316.635Z" transform="translate(-107.7 -141.906)" fill="#1c404e"/>
        <path id="Path_310" data-name="Path 310" d="M191.726,290.757v-2.082H190.71v5.065h1.016v-2.982Z" transform="translate(-93.131 -140.97)" fill="#1c404e"/>
        <path id="Path_311" data-name="Path 311" d="M198.308,288.674v5.065h1.016v-5.065Z" transform="translate(-96.841 -140.97)" fill="#1c404e"/>
        <path id="Path_312" data-name="Path 312" d="M194.366,294.159h0a1.1,1.1,0,0,1-1.095-1.095h2.19a1.1,1.1,0,0,1-1.095,1.095" transform="translate(-94.381 -143.114)" fill="#1c404e"/>
      </g>
    </g>
    <text id="Input" transform="translate(88.651 11.193)" fill="#fff" font-size="1" font-family="SegoeUI, Segoe UI"><tspan x="0" y="0">Input</tspan></text>
    <g id="Group_1076" data-name="Group 1076">
      <g id="Group_1075" data-name="Group 1075" clip-path="url(#clip-path)">
        <path id="Path_313" data-name="Path 313" d="M244.049,121.036c1.671,5.774,8.546,8.857,15.355,6.886s10.975-8.249,9.3-14.023-8.546-8.857-15.356-6.886-10.975,8.249-9.3,14.023" transform="translate(-118.998 -51.968)" fill="#fff"/>
        <path id="Path_314" data-name="Path 314" d="M244.049,121.036c1.671,5.774,8.546,8.857,15.355,6.886s10.975-8.249,9.3-14.023-8.546-8.857-15.356-6.886S242.378,115.262,244.049,121.036Z" transform="translate(-118.998 -51.968)" fill="none" stroke="#1c404e" stroke-miterlimit="10" stroke-width="2"/>
        <path id="Path_315" data-name="Path 315" d="M244.049,168.8c1.671,5.774,8.546,8.857,15.355,6.886s10.975-8.249,9.3-14.023-8.546-8.857-15.356-6.886-10.975,8.249-9.3,14.023" transform="translate(-118.998 -75.294)" fill="#fff"/>
        <path id="Path_316" data-name="Path 316" d="M244.049,168.8c1.671,5.774,8.546,8.857,15.355,6.886s10.975-8.249,9.3-14.023-8.546-8.857-15.356-6.886S242.378,163.029,244.049,168.8Z" transform="translate(-118.998 -75.294)" fill="none" stroke="#1c404e" stroke-miterlimit="10" stroke-width="2"/>
        <path id="Path_317" data-name="Path 317" d="M244.049,216.569c1.671,5.774,8.546,8.857,15.355,6.886s10.975-8.249,9.3-14.023-8.546-8.857-15.356-6.886-10.975,8.249-9.3,14.023" transform="translate(-118.998 -98.62)" fill="#fff"/>
        <path id="Path_318" data-name="Path 318" d="M244.049,216.569c1.671,5.774,8.546,8.857,15.355,6.886s10.975-8.249,9.3-14.023-8.546-8.857-15.356-6.886S242.378,210.795,244.049,216.569Z" transform="translate(-118.998 -98.62)" fill="none" stroke="#1c404e" stroke-miterlimit="10" stroke-width="2"/>
      </g>
    </g>
  </g>
</svg>
